<?xml version="1.0" encoding="UTF-8"?>
<svg id="a" xmlns="http://www.w3.org/2000/svg" version="1.1" viewBox="0 0 600 600">
  <!-- Generator: Adobe Illustrator 30.3.0, SVG Export Plug-In . SVG Version: 2.1.3 Build 182)  -->
  <defs>
    <style>
      .st0 {
        fill: #ea9332;
      }
    </style>
  </defs>
  <path class="st0" d="M265.6,332.6c3,.3,27.1,48.8,28.3,53.5,1.5,6.3-16.4,26.2-20.8,27.6-2.3.7-46.1-3.7-48.1-5-4.3-2.8-14.1-14.8-15.5-19.7-.4-1.6,3.8-24.2,4.7-25.5,8.8-13.4,39-19.3,51.4-30.8h0Z"/>
  <polygon class="st0" points="271.7 544 242.8 509.4 243.9 466.1 282.8 454.2 311.2 500.8 271.7 544"/>
  <path class="st0" d="M329.3,302.4c-2.9-.5-9.4-6-10.4-9.5-.5-1.6,2.3-31.3,3-32.8,3.5-7.4,24.8-16.2,32.2-22.2,2.2,8.5,29.4,43.9,25.9,48.2-9.1.8-45.5,17-50.7,16.2h0Z"/>
  <path class="st0" d="M396.7,173.5c-2.4-1.3-43.9,22.3-47,25.2-4.2,3.9-.9,27.2,1.6,30.4,1.3,1.7,35.5,20,37.6,20,4.5,0,17.6-3.8,21-6.8,1.1-.9,9.1-19.6,9.2-21,.2-14.1-18.9-33.4-22.4-47.8h0Z"/>
  <path class="st0" d="M335.4,357.3h-43.6c-4-8-20.5-43.1-14.6-49.2l35.8-14.5,28.4,35.5-6,28.2h0Z"/>
  <path class="st0" d="M340.3,345.6l14.1,50.8c17.2,4.5,30.9,13.3,48,2v-45.8c-4.8-5-19.4-22.8-25.9-21.6l-36.2,14.6Z"/>
  <path class="st0" d="M361.1,448.9c-3-10.2-2.8-35.3-10.8-41.5-1.4-1.1-25.3-11.8-26.7-11.8l-34,19.3c1.6,7.1,1.5,19.1,5.5,24.8,1,1.4,27.2,19.2,28.9,19.7,4.2,1.1,36.2-8.4,37-10.6h0Z"/>
  <path class="st0" d="M389.4,340.4c5.5,4.8,47.4-15.2,56.2-17.4.6-8.1,2.8-33.2-3.2-38.6-1.9-1.7-26.3-12.6-28.8-12.2l-30,26.7,5.7,41.5Z"/>
  <path class="st0" d="M307.6,227.7c-1.2-.9-28.4-4.8-29.8-4.4-2.8.9-13.8,10.7-14.8,13.9-.7,2.2-1.3,28.2-.7,29.5l28.4,20.5c6.1,1.5,22.9-22.5,28.1-27.3.7-2.8-8.7-30.4-11.1-32.2h0Z"/>
  <path class="st0" d="M265.9,303.6c1.5-2.1,2.2-9.6.8-12.4-.7-1.3-20.7-18.4-22-18.9-6.8-2.5-25.7,5-34,5.8,3.8,6.7,8.4,45.8,13.2,46.4,6.3-5.1,39.2-17.2,42-20.9h0Z"/>
  <g>
    <path class="st0" d="M308.1,184.3c-2.2-1.9-3.9-4.2-7-5.4-.4-3-3.5-8.9-6.2-3.8-7.2-3.4,1.4,12.7,6.4,9.2-1.1,3.1.7,5.9,3.7,7.6-3.1,3.1,7.4,10.3,3.4,3,8.2-.2.8-6-.3-10.6h0Z"/>
    <path class="st0" d="M272.7,142.5c-.2,1.5-.4,1.2.9,3.2,6.6,2.8,2-10.9-.9-3.2Z"/>
    <path class="st0" d="M196.6,69.5c-1.8-4.5-5.9-.8-8.2-2,4.8-2.9-3.3-6.2-5.9-7.6.6-3-5.8-1.5-5-2.9-.7-1.2-2.7-3.7-4.1-3.7-.9.6-.9-2.2-2.2-2.1-3.3,1.6-2.8-1.6-4.9-2.7-1.9,2.9-4-1.3-4.3,2.9.3-2.9-5.4-.8-3.2,1,4.2,1.3,6,4.4,9.1,4.3,3.1.8,4.7,7.7,10.3,7.2,2.6.2,1.7,2.7,3.7,3.7,1.1-.2,4.1.7,4-1.4.1,1.1,1,1.6,2.1,1.4-3.6,1.9,1.1,5.9,1.9,2.4,1.3-.1,1.2,2,2.6,2.2,3.9,4.6,8.5-2.4,4.3-2.7h0Z"/>
    <path class="st0" d="M273.3,138.9c1.1-2.2-2.6-4.5-4.2-5.4-3.7,1.4,1.4,6.4,4.2,5.4Z"/>
    <path class="st0" d="M263.4,127.3c1.1-3.2-3.8-4.4-5.5-5.9-3.5.3-7.1,5.4-2.4,6.1,0,2.5,2.6.1,4.1,1.2,1.1,2.9,7.9,2.1,3.9-1.5h0Z"/>
    <path class="st0" d="M251.8,114.9c-.6-1.4-2.6-.6-1.9.8-2.2,9.9,8.8-2.1,1.9-.8Z"/>
    <path class="st0" d="M218.1,85.9c-.6-.6-.3-3.3-2.5-2.6-3.8.3,1.6,12.5,2.9,7.9,0-1.4,2.6-4.8-.5-5.4h0Z"/>
    <path class="st0" d="M206.8,76.9c-.8-1-1.6.5-2.3-.4-.9-.8-1.5.8-2.1.6,1.9-5.2-6.5-4.1-5.4.5,1.9,1.4,3.6,3.3,6.1,3.1,2.6-.3,7.4.5,3.7-3.8h0Z"/>
    <path class="st0" d="M270.1,146.3c1.4-1,1.9-2.3,1-3.8-3.9-5.9-5.1,4.7-1,3.8Z"/>
    <path class="st0" d="M210.9,88.8c2.2.5,4-1,2.3-3-2.3-2.3-5.1,1.6-2.3,3Z"/>
    <path class="st0" d="M247.7,112.5c3.4.8,2.3-4.5-.6-3.2-1.3,3.9.2,1.5-2.1,4,.8,7.5,7.6,4,2.8-.8Z"/>
    <path class="st0" d="M287.2,157c-.9-2.6-5.2-3.3-7.4-3.2,1.6-2.9-.7-2.5-2.7-2.1-.1-4.7-6.9,0-1.6,1.2.7-.2,1.8.9.8.8-2.3.5,0,4.2,1.8,2.6.3-.4,0,1,0,1.1-4.3.9,4.8,4.8,4.7,2.7-.1,7.3,4.1-1.6,4.1,1.4-2.6,4.5,5.8,2.6,2.6-.5.7-2.8-3.4-1.1-2.4-4.1h0ZM279.3,154.3c-.2.2,0,.6-.2.7,0-.4-.3-.6.2-.7Z"/>
    <path class="st0" d="M253.4,118.6c-.9,2.6,3.2,4.2,3.5,1.2.3-1.3-3.3-3.3-3.5-1.2h0Z"/>
    <path class="st0" d="M286.3,168.3c1.7-.8,2.2-1.4,1.2-2.3-3.3-3.4-4.7,2.7-1.2,2.3Z"/>
    <path class="st0" d="M244.1,105.1c-.7.5-2.3.6-1.4-.5-.7-4.2-7.6-7.5-11-9.8-5.5-.7-1.3-1.3-4.9-3-2.9.6,1.5-4.4-5.4-1.2-2.4-4.1-6.2,5.1,2.1,6.4,3.5,3.9,8,7.9,13.7,10.9,2.9,3.6,4.9.7,8.4.3,2.4-.5-.3-3-1.4-3.2Z"/>
  </g>
</svg>