<?xml version="1.0" encoding="UTF-8"?>
<svg id="a" xmlns="http://www.w3.org/2000/svg" version="1.1" viewBox="0 0 600 600">
  <!-- Generator: Adobe Illustrator 30.3.0, SVG Export Plug-In . SVG Version: 2.1.3 Build 182)  -->
  <defs>
    <style>
      .st0 {
        fill: #ea9332;
      }
    </style>
  </defs>
  <g>
    <path class="st0" d="M79.8,331.1l43.1-8.6,10.6-45.7c-15.9.5-55.2-18.7-60,5.1-.5,2.6,4.3,47.8,6.3,49.2h0Z"/>
    <path class="st0" d="M223.5,334l43.1-8.6,10.6-45.7c-15.9.5-55.2-18.7-60,5.1-.5,2.6,4.3,47.8,6.3,49.2h0Z"/>
    <path class="st0" d="M181.9,332.3l28.2-28.4c-11.1-16.6-18.7-27.5-39.1-32.9l-25.5,19.8,3.8,29.6,32.6,11.9Z"/>
  </g>
  <g>
    <path class="st0" d="M417.1,465.8l-43.1,8.6-10.6,45.7c15.9-.5,55.2,18.7,60-5.1.5-2.6-4.3-47.8-6.3-49.2Z"/>
    <path class="st0" d="M273.4,462.8l-43.1,8.6-10.6,45.7c15.9-.5,55.2,18.7,60-5.1.5-2.6-4.3-47.8-6.3-49.2h0Z"/>
    <path class="st0" d="M315,464.5l-28.2,28.4c11.1,16.6,18.7,27.5,39.1,32.9l25.5-19.8-3.8-29.6-32.6-11.9h0Z"/>
  </g>
  <g>
    <path class="st0" d="M333.4,116.5l43.1,8.6,10.6,45.7c-15.9-.5-55.2,18.7-60-5.1-.5-2.6,4.3-47.8,6.3-49.2Z"/>
    <path class="st0" d="M477.1,113.5l43.1,8.6,10.6,45.7c-15.9-.5-55.2,18.7-60-5.1-.5-2.6,4.3-47.8,6.3-49.2Z"/>
    <path class="st0" d="M435.5,115.2l28.2,28.4c-11.1,16.6-18.7,27.5-39.1,32.9l-25.5-19.8,3.8-29.6s32.6-11.9,32.6-11.9Z"/>
  </g>
</svg>