<?xml version="1.0" encoding="UTF-8"?>
<svg id="a" xmlns="http://www.w3.org/2000/svg" version="1.1" viewBox="0 0 600 600">
  <!-- Generator: Adobe Illustrator 30.3.0, SVG Export Plug-In . SVG Version: 2.1.3 Build 182)  -->
  <defs>
    <style>
      .st0 {
        fill: #ea9332;
      }
    </style>
  </defs>
  <path class="st0" d="M344.5,426.4c1.6,2.2-15.3,47.3-17.8,50.9-3.2,4.8-27,5.2-30.6,3.2-1.9-1.1-25.6-32.3-25.9-34.4-.7-4.5,1.1-18.2,3.5-22.1.8-1.3,18.1-12.2,19.5-12.4,14.1-2.4,36.3,13.7,51.3,14.8h0Z"/>
  <path class="st0" d="M59.9,326.3l20.1-43.6c9.8-.3,52.6-.8,55.9,7.9l-1.8,42.5-48.6,12.2-25.5-18.9h0Z"/>
  <polygon class="st0" points="336.6 525.5 341.6 485.6 370.5 460 401.8 478.2 388.7 525 336.6 525.5"/>
  <path class="st0" d="M401.6,421.7c1.1-1,28.1-7.6,29.6-7.2,2.9.6,14.9,9.4,16.2,12.6.9,2.1,4,28.2,3.5,29.6l-26.6,23.3c-6,2.1-25.1-20.4-30.8-24.8-1-2.8,5.9-31.4,8.1-33.5Z"/>
  <path class="st0" d="M148.6,269.8c-1.2-2.3-.6-9.9,1.3-12.5.9-1.2,23.7-14.9,25.1-15.2,7.2-1.4,24.8,9.2,32.9,11.4-4.9,6-15.9,44.3-20.9,44.1-5.4-6.1-36.3-23.6-38.4-27.8h0Z"/>
  <path class="st0" d="M512.7,152.8l8.2-42.4c8.5-2.4,45.7-11.9,50.5-5.1l7.5,37.5-39.8,21-26.3-11.1h0Z"/>
  <path class="st0" d="M449.4,165.4l40.8-16c6.6,6,35.1,32.7,31.8,40.5l-28.1,26.8-39.7-22.7-4.8-28.6Z"/>
  <path class="st0" d="M402.4,114.6c1-1.2,27.9-11.4,29.5-11.3,3.1.3,16.5,7.7,18.3,10.8,1.2,2.1,7.8,28.5,7.5,30l-24.3,27.4c-5.9,2.9-28.5-17.7-34.9-21.5-1.4-2.7,1.9-33.1,4-35.4Z"/>
  <path class="st0" d="M15.8,254.9c-1.2-2.4-.7-10.3,1.3-12.9.9-1.2,24.5-15.4,26-15.7,7.4-1.5,25.6,9.6,34.1,11.8-5.1,6.2-16.5,45.9-21.6,45.6-5.6-6.3-37.6-24.5-39.8-28.8h0Z"/>
</svg>