<?xml version="1.0" encoding="UTF-8"?>
<svg id="a" xmlns="http://www.w3.org/2000/svg" viewBox="0 0 600 600">
  <defs>
    <style>
      .cls-1 {
        fill: #c67e75;
      }
    </style>
  </defs>
  <path class="cls-1" d="M501.06,412.55c-1.03,4.28-75.43,29.98-82.47,30.71-9.39.98-34.68-28.54-35.84-35.11-.61-3.46,13.98-65.76,16.3-68.41,4.9-5.6,24-17.59,31.34-18.63,2.38-.33,34.19,10.06,35.93,11.55,17.72,15.17,20.57,59.84,34.75,79.89Z"/>
  <path class="cls-1" d="M123.54,374.64l64.83-25.51c10.57,9.49,55.8,51.98,50.61,64.41l-44.65,42.63-63.12-36.08-7.67-45.47Z"/>
  <path class="cls-1" d="M319.31,342.79c2.46.38,38.77,27.45,39.92,29.65,2.27,4.35,3.62,28.47,1.02,33.46-1.76,3.37-31.3,34.39-33.57,35.28l-56.95-9.18c-8.87-5.33-.5-52.85-.91-64.59,2.5-4.11,45.61-25.38,50.5-24.62Z"/>
  <path class="cls-1" d="M286.72,251.88c3.06,3.16-15.17,79.74-18.32,86.07-4.21,8.45-42.69,13.96-48.86,11.41-3.25-1.34-48-47.08-48.99-50.45-2.1-7.14-1.97-29.69,1.09-36.44.99-2.18,26.83-23.46,29.02-24.13,22.31-6.82,61.53,14.74,86.06,13.53Z"/>
  <path class="cls-1" d="M227.93,211.68l14.91-76.94c15.38-4.3,83.02-21.61,91.69-9.18l13.53,68.11-72.33,38.15-47.79-20.15Z"/>
  <polygon class="cls-1" points="307.62 324.53 307.62 258.96 349.14 211.59 403.61 234.57 391.87 313.07 307.62 324.53"/>
</svg>