<?xml version="1.0" encoding="UTF-8"?>
<svg id="a" xmlns="http://www.w3.org/2000/svg" viewBox="0 0 600 600">
  <defs>
    <style>
      .cls-1 {
        fill: #c7bca3;
      }
    </style>
  </defs>
  <path class="cls-1" d="M302.46,380.68l16.75-86.43c17.28-4.84,93.27-24.28,103.01-10.31l15.2,76.52-81.26,42.86-53.69-22.64Z"/>
  <path class="cls-1" d="M156.32,308.85l72.21-28.41c11.77,10.57,62.15,57.9,56.37,71.74l-49.73,47.48-70.3-40.18-8.54-50.64Z"/>
  <path class="cls-1" d="M305.94,160.76c1.84-2.1,49.39-20.21,52.17-19.98,5.49.46,29.18,13.72,32.34,19.2,2.13,3.7,13.74,50.4,13.22,53.09l-43.02,48.47c-10.4,5.2-50.41-31.38-61.79-38.06-2.39-4.85,3.43-58.54,7.09-62.72Z"/>
  <path class="cls-1" d="M155.24,223.09c-3.14-3.6-5.44-17.41-3.12-22.77,1.07-2.47,35.64-36.85,38.09-37.98,12.2-5.63,48.11,5.68,63.64,6-6.14,12.89-9.13,85.85-18.04,87.57-12.29-8.52-74.9-26.33-80.57-32.83Z"/>
</svg>